<svg id="Capa_1" enable-background="new 0 0 512 512" height="512" viewBox="0 0 512 512" width="512" xmlns="http://www.w3.org/2000/svg"><g><path d="m437.02 74.98c-48.353-48.351-112.64-74.98-181.02-74.98s-132.667 26.629-181.02 74.98c-48.351 48.353-74.98 112.64-74.98 181.02s26.629 132.667 74.98 181.02c48.353 48.351 112.64 74.98 181.02 74.98s132.667-26.629 181.02-74.98c48.351-48.353 74.98-112.64 74.98-181.02s-26.629-132.667-74.98-181.02zm-181.02 407.02c-124.617 0-226-101.383-226-226s101.383-226 226-226 226 101.383 226 226-101.383 226-226 226z"/><circle cx="256.004" cy="393.354" r="15"/><path d="m257.878 103.665c-50.464-1.044-93.103 40.777-93.103 91.208h30c0-33.69 28.782-61.921 62.498-61.214 31.92.643 58.219 26.092 59.872 57.937 1.784 34.37-26.777 64.505-61.143 64.505h-15v94.71h30v-65.922c45.261-7.41 78.468-49.254 76.102-94.848-2.463-47.476-41.656-85.418-89.226-86.376z"/></g></svg>